<svg width="25" height="25" viewBox="0 0 25 25" fill="none" xmlns="http://www.w3.org/2000/svg">
<path d="M4.10254 4.18604H7.10254L9.10254 2.18604H15.1025L17.1025 4.18604H20.1025C20.633 4.18604 21.1417 4.39675 21.5168 4.77182C21.8918 5.14689 22.1025 5.6556 22.1025 6.18604V18.186C22.1025 18.7165 21.8918 19.2252 21.5168 19.6002C21.1417 19.9753 20.633 20.186 20.1025 20.186H4.10254C3.57211 20.186 3.0634 19.9753 2.68833 19.6002C2.31325 19.2252 2.10254 18.7165 2.10254 18.186V6.18604C2.10254 5.6556 2.31325 5.14689 2.68833 4.77182C3.0634 4.39675 3.57211 4.18604 4.10254 4.18604ZM12.1025 7.18604C10.7765 7.18604 9.50469 7.71282 8.56701 8.6505C7.62932 9.58818 7.10254 10.86 7.10254 12.186C7.10254 13.5121 7.62932 14.7839 8.56701 15.7216C9.50469 16.6593 10.7765 17.186 12.1025 17.186C13.4286 17.186 14.7004 16.6593 15.6381 15.7216C16.5758 14.7839 17.1025 13.5121 17.1025 12.186C17.1025 10.86 16.5758 9.58818 15.6381 8.6505C14.7004 7.71282 13.4286 7.18604 12.1025 7.18604ZM12.1025 9.18604C12.8982 9.18604 13.6613 9.50211 14.2239 10.0647C14.7865 10.6273 15.1025 11.3904 15.1025 12.186C15.1025 12.9817 14.7865 13.7447 14.2239 14.3074C13.6613 14.87 12.8982 15.186 12.1025 15.186C11.3069 15.186 10.5438 14.87 9.98122 14.3074C9.41861 13.7447 9.10254 12.9817 9.10254 12.186C9.10254 11.3904 9.41861 10.6273 9.98122 10.0647C10.5438 9.50211 11.3069 9.18604 12.1025 9.18604Z" fill="currentColor"/>
</svg>
