<svg width="25" height="25" viewBox="0 0 25 25" fill="none" xmlns="http://www.w3.org/2000/svg">
<path d="M12.0784 3.91797C6.57837 3.91797 2.07837 7.49797 2.07837 11.918C2.07837 16.338 6.57837 19.918 12.0784 19.918C13.3184 19.918 14.5084 19.738 15.6084 19.418C18.5284 21.918 22.0784 21.918 22.0784 21.918C19.7484 19.588 19.3784 18.018 19.3284 17.418C21.0284 15.988 22.0784 14.048 22.0784 11.918C22.0784 7.49797 17.5784 3.91797 12.0784 3.91797ZM7.07837 12.918V10.918H9.07837V12.918H7.07837ZM11.0784 12.918V10.918H13.0784V12.918H11.0784ZM15.0784 12.918V10.918H17.0784V12.918H15.0784Z" fill="#555555"/>
</svg>
