<svg width="25" height="25" viewBox="0 0 25 25" fill="none" xmlns="http://www.w3.org/2000/svg">
<path d="M15.1025 3.18604H3.10254C2.00254 3.18604 1.10254 4.08604 1.10254 5.18604V19.186C1.10254 20.286 2.00254 21.186 3.10254 21.186H17.1025C18.2025 21.186 19.1025 20.286 19.1025 19.186V7.18604L15.1025 3.18604ZM17.1025 19.186H3.10254V5.18604H14.3025L17.1025 7.98604V19.186ZM10.1025 12.186C8.40254 12.186 7.10254 13.486 7.10254 15.186C7.10254 16.886 8.40254 18.186 10.1025 18.186C11.8025 18.186 13.1025 16.886 13.1025 15.186C13.1025 13.486 11.8025 12.186 10.1025 12.186ZM4.10254 6.18604H13.1025V10.186H4.10254V6.18604ZM23.1025 13.186H21.1025V7.18604H23.1025V13.186ZM23.1025 17.186H21.1025V15.186H23.1025V17.186Z" fill="black"/>
</svg>
